<svg width="20" height="19" viewBox="0 0 20 19" fill="none" xmlns="http://www.w3.org/2000/svg">
<path d="M11.3705 2.85449C10.8461 2.85449 10.4209 3.27966 10.4209 3.80413C10.4209 4.3286 10.8461 4.75376 11.3705 4.75376H13.8261L7.85012 10.7297C7.47927 11.1006 7.47927 11.7019 7.85012 12.0727C8.22098 12.4436 8.82226 12.4436 9.19311 12.0727L15.1691 6.09675V8.55231C15.1691 9.07678 15.5942 9.50195 16.1187 9.50195C16.6432 9.50195 17.0683 9.07678 17.0683 8.55231V3.80413C17.0683 3.27966 16.6432 2.85449 16.1187 2.85449H11.3705Z" fill="currentColor"/>
<path d="M5.67271 4.75376C4.62377 4.75376 3.77344 5.6041 3.77344 6.65304V14.2501C3.77344 15.2991 4.62377 16.1494 5.67271 16.1494H13.2698C14.3187 16.1494 15.1691 15.2991 15.1691 14.2501V11.4012C15.1691 10.8767 14.7439 10.4516 14.2194 10.4516C13.695 10.4516 13.2698 10.8767 13.2698 11.4012V14.2501H5.67271V6.65304L8.52162 6.65304C9.04609 6.65304 9.47125 6.22787 9.47125 5.7034C9.47125 5.17893 9.04609 4.75376 8.52162 4.75376H5.67271Z" fill="currentColor"/>
</svg>
