<svg width="25" height="26" viewBox="0 0 25 26" fill="none" xmlns="http://www.w3.org/2000/svg">
<path d="M6.15842 4.57274C4.81372 4.57274 3.72363 5.66283 3.72363 7.00752V19.1814C3.72363 20.5261 4.81372 21.6162 6.15842 21.6162H18.3323C19.677 21.6162 20.7671 20.5261 20.7671 19.1814V7.00752C20.7671 5.66283 19.677 4.57274 18.3323 4.57274H17.1149C16.4426 4.57274 15.8975 5.11778 15.8975 5.79013C15.8975 6.46248 16.4426 7.00752 17.1149 7.00752H18.3323V15.5293H15.8975L14.6802 17.964H9.81059L8.5932 15.5293H6.15842V7.00752L7.37581 7.00752C8.04815 7.00752 8.5932 6.46248 8.5932 5.79013C8.5932 5.11778 8.04815 4.57274 7.37581 4.57274H6.15842Z" fill="#216cff"/>
<path d="M8.94977 9.79887C9.42519 9.32345 10.196 9.32345 10.6714 9.79887L11.028 10.1554L11.028 4.57274C11.028 3.90039 11.573 3.35535 12.2454 3.35535C12.9177 3.35535 13.4628 3.90039 13.4628 4.57274V10.1554L13.8193 9.79887C14.2948 9.32345 15.0656 9.32345 15.541 9.79887C16.0164 10.2743 16.0164 11.0451 15.541 11.5205L13.1062 13.9553C12.8779 14.1836 12.5683 14.3119 12.2454 14.3119C11.9225 14.3119 11.6129 14.1836 11.3846 13.9553L8.94977 11.5205C8.47435 11.0451 8.47435 10.2743 8.94977 9.79887Z" fill="#216cff"/>
</svg>
