<svg width="117" height="198" viewBox="0 0 117 198" fill="none" xmlns="http://www.w3.org/2000/svg">
<path fill-rule="evenodd" clip-rule="evenodd" d="M58.4396 0.554688C44.8842 0.554688 31.8808 5.95326 22.2688 15.5697C-10.8895 48.938 19.6588 89.593 44.7988 123.05C47.4703 126.606 50.0808 130.08 52.5472 133.455C53.9239 135.342 56.1111 136.456 58.4372 136.456C60.7632 136.456 62.9504 135.342 64.3272 133.455C66.7901 130.086 69.3964 126.618 72.0636 123.069C97.2126 89.6087 127.775 48.9454 94.6103 15.5697C84.9972 5.95326 71.9949 0.554688 58.4396 0.554688ZM45.466 37.5158C48.9067 34.0533 53.5732 32.1076 58.4396 32.1076C63.3072 32.1076 67.9749 34.0545 71.4155 37.5182C74.8561 40.9831 76.7883 45.6805 76.7883 50.5779C76.7871 55.4753 74.8537 60.1715 71.4119 63.6328C67.9701 67.0941 63.3036 69.0386 58.4372 69.0386C53.5708 69.0374 48.9055 67.0917 45.4648 63.628C42.0242 60.1655 40.092 55.4681 40.092 50.5719C40.092 45.6745 42.0254 40.9783 45.466 37.5158ZM3.81906 112.043L22.7711 104.829C24.561 107.551 26.4081 110.255 28.2886 112.934L10.2319 119.815V185.829L34.4982 176.582V121.566C37.3873 125.5 40.2943 129.369 43.1395 133.155L43.1402 133.156L43.9765 134.269V176.454L73.0204 186.137V134.109L73.7202 133.178L73.7207 133.177C76.6107 129.332 79.5645 125.402 82.4986 121.404V185.829L106.765 176.582L106.752 110.581L84.1015 119.211C87.3989 114.676 90.6519 110.06 93.741 105.387L109.805 99.2746C110.35 99.0694 110.914 98.9668 111.491 98.9668C112.755 98.9668 113.941 99.4606 114.839 100.352C115.737 101.243 116.23 102.43 116.23 103.7V179.846C116.262 181.828 115.038 183.636 113.184 184.341L79.4525 197.18C78.933 197.366 78.3815 197.456 77.8493 197.456C77.317 197.456 76.7847 197.366 76.2781 197.186L39.3592 184.874L7.21147 197.129C6.66637 197.334 6.10204 197.436 5.52488 197.436L5.51206 197.43C4.24873 197.43 3.06234 196.936 2.16454 196.045C1.26674 195.153 0.772949 193.967 0.772949 192.697V116.468C0.772949 114.512 1.99781 112.735 3.81906 112.043Z" fill="#216CFF"/>
</svg>
