<svg width="90" height="90" viewBox="0 0 90 90" fill="none" xmlns="http://www.w3.org/2000/svg">
<path d="M45.1515 89.2743C69.6194 89.2743 89.4545 69.4392 89.4545 44.9713C89.4545 20.5034 69.6194 0.668259 45.1515 0.668259C20.6836 0.668259 0.848511 20.5034 0.848511 44.9713C0.848511 69.4392 20.6836 89.2743 45.1515 89.2743Z" fill="#4C8CF2"/>
<path d="M45.1515 82.7833C66.0345 82.7833 82.9635 65.8543 82.9635 44.9713C82.9635 24.0883 66.0345 7.15923 45.1515 7.15923C24.2685 7.15923 7.33948 24.0883 7.33948 44.9713C7.33948 65.8543 24.2685 82.7833 45.1515 82.7833Z" fill="#2C405A"/>
<path d="M63.8358 49.1781C62.9977 47.7977 61.8145 46.5653 60.3191 45.53C57.4434 43.5252 53.6638 42.4242 49.6706 42.4242H47.7151V29.5244H48.2081C51.1167 29.5244 53.9267 30.3132 55.9316 31.71C56.8354 32.3344 58.2815 33.5833 58.5772 35.3252C58.643 35.7031 58.9716 35.9661 59.3496 35.9661H62.932C63.4085 35.9661 63.77 35.5553 63.7207 35.0951C63.5893 33.7148 63.1292 32.3837 62.3732 31.1184C61.5352 29.738 60.352 28.5056 58.8566 27.4703C55.9809 25.4655 52.2013 24.3645 48.2081 24.3645H47.7151V20.4535C47.7151 19.8619 47.2386 19.3853 46.647 19.3853H43.6398C43.0482 19.3853 42.5716 19.8619 42.5716 20.4535V24.3645H40.6161C36.6229 24.3645 32.8434 25.4655 29.9676 27.4703C28.4722 28.5056 27.3055 29.7216 26.451 31.1184C25.5308 32.6466 25.0542 34.2735 25.0542 35.9661C25.0542 37.6587 25.5308 39.2855 26.451 40.8138C27.2891 42.1941 28.4722 43.4266 29.9676 44.4619C32.8434 46.4667 36.6229 47.5677 40.6161 47.5677H42.5881V60.4675H40.6326C37.7239 60.4675 34.9139 59.6787 32.9091 58.2819C32.0053 57.6575 30.5592 56.4086 30.2634 54.6667C30.1977 54.2887 29.869 54.0258 29.4911 54.0258H25.9087C25.4322 54.0258 25.0706 54.4366 25.1199 54.8967C25.2514 56.2771 25.7115 57.6082 26.4674 58.8735C27.3055 60.2539 28.4887 61.4863 29.9841 62.5216C32.8598 64.5264 36.6394 65.6274 40.6326 65.6274H42.5881V69.4891C42.5881 70.0807 43.0646 70.5573 43.6562 70.5573H46.6634C47.255 70.5573 47.7316 70.0807 47.7316 69.4891V65.6274H49.6871C53.6803 65.6274 57.4598 64.5264 60.3356 62.5216C61.831 61.4863 62.9977 60.2703 63.8522 58.8735C64.7724 57.3452 65.249 55.7184 65.249 54.0258C65.2326 52.3332 64.756 50.6899 63.8358 49.1781ZM40.6326 42.4406C37.7239 42.4406 34.9139 41.6518 32.9091 40.2551C31.9067 39.5484 30.2141 38.0695 30.2141 35.9825C30.2141 33.8955 31.9067 32.4166 32.9091 31.71C34.9139 30.3296 37.7239 29.5244 40.6326 29.5244H42.5881V42.4242H40.6326V42.4406ZM57.3941 58.2983C55.3893 59.6787 52.5793 60.4839 49.6706 60.4839H47.7151V47.5841H49.6706C52.5793 47.5841 55.3893 48.3729 57.3941 49.7697C58.3965 50.4763 60.0891 51.9553 60.0891 54.0422C60.0891 56.0963 58.3965 57.5917 57.3941 58.2983Z" fill="white"/>
</svg>
