<svg width="41" height="52" viewBox="0 0 41 52" fill="none" xmlns="http://www.w3.org/2000/svg">
<path d="M38.8358 30.6217C37.9977 29.2414 36.8145 28.0089 35.3191 26.9736C32.4434 24.9688 28.6638 23.8678 24.6706 23.8678H22.7151V10.968H23.2081C26.1167 10.968 28.9267 11.7568 30.9316 13.1536C31.8354 13.778 33.2815 15.0269 33.5772 16.7688C33.643 17.1468 33.9716 17.4097 34.3496 17.4097H37.932C38.4085 17.4097 38.77 16.9989 38.7207 16.5388C38.5893 15.1584 38.1292 13.8273 37.3732 12.562C36.5352 11.1817 35.352 9.94919 33.8566 8.91392C30.9809 6.90911 27.2013 5.80811 23.2081 5.80811H22.7151V1.89709C22.7151 1.3055 22.2386 0.828949 21.647 0.828949H18.6398C18.0482 0.828949 17.5716 1.3055 17.5716 1.89709V5.80811H15.6161C11.6229 5.80811 7.84338 6.90911 4.96763 8.91392C3.47223 9.94919 2.3055 11.1652 1.45099 12.562C0.530752 14.0903 0.0541992 15.7171 0.0541992 17.4097C0.0541992 19.1023 0.530752 20.7291 1.45099 22.2574C2.28907 23.6378 3.47223 24.8702 4.96763 25.9055C7.84338 27.9103 11.6229 29.0113 15.6161 29.0113H17.5881V41.9111H15.6326C12.7239 41.9111 9.91392 41.1223 7.90911 39.7255C7.0053 39.1011 5.55921 37.8522 5.26342 36.1103C5.19769 35.7324 4.86903 35.4694 4.49107 35.4694H0.908708C0.432155 35.4694 0.0706311 35.8803 0.11993 36.3404C0.251393 37.7207 0.711512 39.0518 1.46742 40.3171C2.3055 41.6975 3.48867 42.93 4.98406 43.9652C7.85981 45.97 11.6394 47.071 15.6326 47.071H17.5881V50.9328C17.5881 51.5243 18.0646 52.0009 18.6562 52.0009H21.6634C22.255 52.0009 22.7316 51.5243 22.7316 50.9328V47.071H24.6871C28.6803 47.071 32.4598 45.97 35.3356 43.9652C36.831 42.93 37.9977 41.7139 38.8522 40.3171C39.7724 38.7889 40.249 37.162 40.249 35.4694C40.2326 33.7768 39.756 32.1336 38.8358 30.6217ZM15.6326 23.8843C12.7239 23.8843 9.91392 23.0955 7.90911 21.6987C6.9067 20.9921 5.21412 19.5131 5.21412 17.4261C5.21412 15.3392 6.9067 13.8602 7.90911 13.1536C9.91392 11.7732 12.7239 10.968 15.6326 10.968H17.5881V23.8678H15.6326V23.8843ZM32.3941 39.742C30.3893 41.1223 27.5793 41.9275 24.6706 41.9275H22.7151V29.0277H24.6706C27.5793 29.0277 30.3893 29.8165 32.3941 31.2133C33.3965 31.9199 35.0891 33.3989 35.0891 35.4859C35.0891 37.54 33.3965 39.0354 32.3941 39.742Z" fill="currentColor"/>
</svg>
