<svg width="60" height="45" viewBox="0 0 60 45" fill="none" xmlns="http://www.w3.org/2000/svg">
<path d="M22.9914 26.324C22.9914 28.8393 20.9527 30.8912 18.4242 30.8912C15.8957 30.8912 13.857 28.8525 13.857 26.324C13.857 23.7955 15.8957 21.7568 18.4242 21.7568C20.9527 21.7568 22.9914 23.8087 22.9914 26.324ZM36.6666 25.1855V27.4625C36.6666 28.7202 35.6473 29.7395 34.3896 29.7395H31.6625C31.3448 30.9707 30.855 32.1621 30.2063 33.2609L32.1126 35.1937C32.9996 36.0807 32.9996 37.5236 32.1126 38.4239L30.524 40.0125C29.637 40.8994 28.1941 40.8994 27.2939 40.0125L25.3611 38.0797C24.2623 38.7283 23.0841 39.2314 21.8397 39.5624V42.2895C21.8397 43.5471 20.8203 44.5664 19.5627 44.5664H17.2857C16.028 44.5664 15.0087 43.5471 15.0087 42.2895V39.5624C13.7775 39.2446 12.5861 38.7548 11.4873 38.1061L9.5545 40.0125C8.66753 40.8994 7.22455 40.8994 6.32435 40.0125L4.73575 38.4239C3.84878 37.5369 3.84878 36.0939 4.73575 35.1937L6.66854 33.2609C6.01987 32.1621 5.51681 30.9839 5.18585 29.7395H2.45876C1.20111 29.7395 0.181763 28.7202 0.181763 27.4625V25.1855C0.181763 23.9279 1.20111 22.9085 2.45876 22.9085H5.18585C5.50357 21.6774 5.99339 20.4859 6.64207 19.3871L4.73575 17.4543C3.84878 16.5674 3.84878 15.1244 4.73575 14.2242L6.32435 12.6356C7.21132 11.7486 8.65429 11.7486 9.5545 12.6356L11.4873 14.5684C12.5861 13.9197 13.7643 13.4167 15.0087 13.0857V10.3586C15.0087 9.10096 16.028 8.0816 17.2857 8.0816H19.5627C20.8203 8.0816 21.8397 9.10096 21.8397 10.3586V13.0857C23.0708 13.4034 24.2623 13.8932 25.3611 14.5419L27.2939 12.6356C28.1808 11.7486 29.6238 11.7486 30.524 12.6356L32.1126 14.2242C32.9996 15.1112 32.9996 16.5541 32.1126 17.4543L30.1798 19.3871C30.8285 20.4859 31.3316 21.6641 31.6625 22.9085H34.3896C35.6473 22.9085 36.6666 23.9279 36.6666 25.1855ZM26.4069 26.324C26.4069 21.9157 22.8325 18.3413 18.4242 18.3413C14.0158 18.3413 10.4415 21.9157 10.4415 26.324C10.4415 30.7324 14.0158 34.3067 18.4242 34.3067C22.8325 34.3067 26.4069 30.7324 26.4069 26.324Z" fill="#216cff"/>
<path d="M47.5694 15.7144C47.1041 17.263 45.4693 18.1491 43.9126 17.6813C42.3559 17.2136 41.4779 15.5812 41.9457 14.0245C42.4134 12.4678 44.0458 11.5898 45.6025 12.0576C47.1592 12.5254 48.0347 14.1659 47.5694 15.7144ZM56.1993 17.5434L55.7781 18.9453C55.5454 19.7196 54.7292 20.1586 53.955 19.9259L52.276 19.4214C51.8526 20.1206 51.3306 20.7635 50.728 21.32L51.5441 22.8626C51.926 23.5728 51.6591 24.4611 50.9465 24.8513L49.6745 25.5354C48.9644 25.9174 48.076 25.6504 47.6859 24.9378L46.8535 23.3903C46.057 23.5864 45.2385 23.6781 44.4112 23.6517L43.9067 25.3307C43.674 26.1049 42.8578 26.5439 42.0836 26.3113L40.6817 25.89C39.9074 25.6573 39.4684 24.8412 39.7011 24.0669L40.2056 22.3879C39.5064 21.9646 38.8635 21.4426 38.307 20.8399L36.7644 21.656C36.0542 22.038 35.1659 21.771 34.7757 21.0584L34.0916 19.7865C33.7096 19.0763 33.9766 18.1879 34.6892 17.7978L36.2367 16.9654C36.0406 16.1689 35.9489 15.3505 35.9753 14.5231L34.2963 14.0186C33.5221 13.786 33.0831 12.9698 33.3157 12.1955L33.737 10.7937C33.9697 10.0194 34.7858 9.58038 35.5601 9.81305L37.2391 10.3176C37.6624 9.61837 38.1844 8.97545 38.7871 8.41898L37.971 6.87636C37.589 6.1662 37.856 5.27781 38.5686 4.88768L39.8405 4.20353C40.5507 3.82155 41.4391 4.08851 41.8292 4.80112L42.6616 6.34864C43.458 6.15255 44.2765 6.06081 45.1039 6.08727L45.6084 4.4083C45.841 3.63402 46.6572 3.19502 47.4315 3.42769L48.8333 3.84894C49.6076 4.0816 50.0466 4.89776 49.8139 5.67204L49.3094 7.35101C50.0086 7.77439 50.6515 8.29637 51.208 8.89901L52.7506 8.08294C53.4608 7.70096 54.3492 7.96791 54.7393 8.68052L55.4235 9.95246C55.8054 10.6626 55.5385 11.551 54.8259 11.9411L53.2784 12.7735C53.4744 13.57 53.5662 14.3884 53.5397 15.2158L55.2187 15.7203C55.993 15.953 56.432 16.7691 56.1993 17.5434ZM49.6722 16.3463C50.4877 13.6322 48.9484 10.7704 46.2343 9.95482C43.5203 9.13927 40.6584 10.6786 39.8429 13.3927C39.0273 16.1067 40.5666 18.9686 43.2807 19.7841C45.9948 20.5997 48.8566 19.0604 49.6722 16.3463Z" fill="#216cff"/>
</svg>

