<svg width="40" height="52" viewBox="0 0 40 52" fill="none" xmlns="http://www.w3.org/2000/svg">
<path d="M23.5302 23.6823H16.3655C15.4946 23.6823 14.788 24.3889 14.788 25.2598V49.4654C14.788 50.3364 15.4946 51.043 16.3655 51.043H23.5302C24.4012 51.043 25.1078 50.3364 25.1078 49.4654V25.2598C25.1078 24.3889 24.4012 23.6823 23.5302 23.6823Z" fill="#216cff"/>
<path d="M9.19688 0.643372H2.03215C1.1612 0.643372 0.45459 1.34998 0.45459 2.22093V49.449C0.45459 50.3199 1.1612 51.0265 2.03215 51.0265H9.19688C10.0678 51.0265 10.7744 50.3199 10.7744 49.449V2.23736C10.7744 1.36642 10.0678 0.643372 9.19688 0.643372Z" fill="#216cff"/>
<path d="M37.9941 11.5055H30.8294C29.9584 11.5055 29.2518 12.2121 29.2518 13.083V49.449C29.2518 50.3199 29.9584 51.0266 30.8294 51.0266H37.9941C38.8651 51.0266 39.5717 50.3199 39.5717 49.449V13.0995C39.5717 12.2285 38.8651 11.5055 37.9941 11.5055Z" fill="#216cff"/>
</svg>

