<svg width="53" height="44" viewBox="0 0 53 44" fill="none" xmlns="http://www.w3.org/2000/svg">
<path d="M29.2271 1.13498L50.9619 11.2202C52.2758 11.8297 52.269 13.6987 50.9509 14.2993L28.7032 24.4291C26.9011 25.2495 24.8302 25.2437 23.0333 24.4123L1.22605 14.3239C-0.0905121 13.7149 -0.0836879 11.8429 1.23707 11.2433L23.5567 1.11138C25.3598 0.292575 27.4307 0.301492 29.2271 1.13498Z" fill="#216cff"/>
<path d="M26.1414 34.015C24.5687 34.015 22.997 33.6767 21.534 33L1.37819 23.6753C0.397074 23.2216 -0.0302308 22.0587 0.424371 21.0784C0.878448 20.098 2.04225 19.671 3.02337 20.1253L23.1797 29.4494C25.0474 30.3133 27.1929 30.3196 29.0659 29.4673L49.5938 20.1206C50.5776 19.6726 51.7387 20.1064 52.187 21.0894C52.6353 22.0724 52.2012 23.2326 51.2175 23.6806L30.6895 33.0273C29.2433 33.6856 27.6926 34.015 26.1419 34.015H26.1414Z" fill="#216cff"/>
<path d="M26.1414 43.0234C24.5687 43.0234 22.997 42.6851 21.534 42.0084L1.37819 32.6842C0.397074 32.2305 -0.0302308 31.0676 0.424371 30.0873C0.878448 29.1069 2.04225 28.6799 3.02337 29.1342L23.1797 38.4583C25.0474 39.3223 27.1929 39.3285 29.0659 38.4762L49.5938 29.1295C50.5776 28.6815 51.7387 29.1153 52.187 30.0983C52.6353 31.0813 52.2012 32.2415 51.2175 32.6895L30.6895 42.0362C29.2433 42.6945 27.6926 43.0239 26.1419 43.0239L26.1414 43.0234Z" fill="#216cff"/>
</svg>

