<svg width="9" height="14" viewBox="0 0 9 14" fill="none" xmlns="http://www.w3.org/2000/svg">
<path fill-rule="evenodd" clip-rule="evenodd" d="M4.58496 0C4.85018 5.96046e-08 5.10453 0.105357 5.29207 0.292893L8.29207 3.29289C8.68259 3.68342 8.68259 4.31658 8.29207 4.70711C7.90154 5.09763 7.26838 5.09763 6.87785 4.70711L4.58496 2.41421L2.29207 4.70711C1.90154 5.09763 1.26838 5.09763 0.877854 4.70711C0.48733 4.31658 0.48733 3.68342 0.877854 3.29289L3.87785 0.292893C4.06539 0.105357 4.31975 0 4.58496 0ZM0.877854 9.29289C1.26838 8.90237 1.90154 8.90237 2.29207 9.29289L4.58496 11.5858L6.87785 9.29289C7.26838 8.90237 7.90154 8.90237 8.29207 9.29289C8.68259 9.68342 8.68259 10.3166 8.29207 10.7071L5.29207 13.7071C4.90154 14.0976 4.26838 14.0976 3.87785 13.7071L0.877854 10.7071C0.48733 10.3166 0.48733 9.68342 0.877854 9.29289Z" fill="currentColor"/>
</svg>
